<svg xmlns="http://www.w3.org/2000/svg" viewBox="0 0 26 28" id="svg11951477446"><path d="M 0.242 16.493 C 0.914 20.007 2.472 22.812 4.915 24.905 C 13.125 31.943 25.055 26.039 25.866 15.195 C 26.282 9.616 24.177 5.203 19.548 1.953" fill="transparent" stroke-width="0.05" stroke="rgb(0,17,51)" stroke-miterlimit="10"/><path d="M 19.548 1.953 C 9.46 -3.888 -1.607 4.926 0.242 16.493 M 19.548 1.953 L 18.103 4.716" fill="transparent" stroke-width="0.05" stroke="rgb(251,186,181)" stroke-miterlimit="10"/><path d="M 18.103 4.717 C 10.036 0.952 2.213 6.81 3.288 15.955" fill="transparent" stroke-width="0.05" stroke="rgb(251,186,181)" stroke-miterlimit="10"/><path d="M 3.288 15.955 C 9.98 14.75 14.919 11.004 18.103 4.716" fill="transparent" stroke-width="0.05" stroke="rgb(0,17,51)" stroke-miterlimit="10"/><path d="M 19.548 1.953 L 18.103 4.716 C 10.036 0.952 2.213 6.81 3.288 15.955 C 2.3 16.295 1.285 16.474 0.242 16.493 C -1.607 4.926 9.46 -3.888 19.548 1.953 Z" fill="var(--token-0a2fcbf2-829a-4df1-a073-72e0b2193407, rgb(99, 76, 0)) /* {&quot;name&quot;:&quot;Primary 1 - Dark&quot;} */"/><path d="M 19.548 1.953 C 24.177 5.203 26.282 9.616 25.866 15.195 C 25.055 26.039 13.125 31.943 4.915 24.905 C 2.472 22.812 0.914 20.007 0.242 16.493 C 1.285 16.474 2.3 16.295 3.288 15.955 C 9.98 14.75 14.919 11.004 18.103 4.716 Z" fill="var(--token-9760a20c-2452-4ec9-b3bc-eaeea911af35, rgb(132, 171, 106)) /* {&quot;name&quot;:&quot;Secondary 2 - Mid&quot;} */"/></svg>